# xmcd
#
# Track frame offsets:
#	150
#	22370
#	41259
#	71721
#	89487
#
# Disc length: 1592 seconds
#
# Revision: 1
# Processed by: cddbd v1.5.2PL0 Copyright (c) Steve Scherf et al.
# Submitted via: audiograbber 1.82.02
#
DISCID=41063605
DTITLE=Bryon McCay - Flatline
DYEAR=1900
DGENRE=
TTITLE0=Various Artist - Shine
TTITLE1=Various Artist - Bvd of broken dreams
TTITLE2=Various Artist - Stranglehold
TTITLE3=Various Artist - A fool for going slowly
TTITLE4=Various Artist - Dreams I'll never have
EXTD=
EXTT0=
EXTT1=
EXTT2=
EXTT3=
EXTT4=
PLAYORDER=
